<svg id="visual" viewBox="0 0 960 540" width="960" height="540" xmlns="http://www.w3.org/2000/svg" xmlns:xlink="http://www.w3.org/1999/xlink" version="1.1"><rect x="0" y="0" width="960" height="540" fill="#c2e7c9"></rect><path d="M774 540L747.7 527.2C721.3 514.3 668.7 488.7 651.5 463C634.3 437.3 652.7 411.7 677.5 386C702.3 360.3 733.7 334.7 758.5 308.8C783.3 283 801.7 257 784 231.2C766.3 205.3 712.7 179.7 701 154C689.3 128.3 719.7 102.7 716.7 77C713.7 51.3 677.3 25.7 659.2 12.8L641 0L960 0L960 12.8C960 25.7 960 51.3 960 77C960 102.7 960 128.3 960 154C960 179.7 960 205.3 960 231.2C960 257 960 283 960 308.8C960 334.7 960 360.3 960 386C960 411.7 960 437.3 960 463C960 488.7 960 514.3 960 527.2L960 540Z" fill="#29AB87" stroke-linecap="round" stroke-linejoin="miter"></path></svg>