<svg id="visual" viewBox="0 0 540 960" width="540" height="960" xmlns="http://www.w3.org/2000/svg" xmlns:xlink="http://www.w3.org/1999/xlink" version="1.1"><rect x="0" y="0" width="540" height="960" fill="#c2e7c9"></rect><path d="M436 960L421.2 937.2C406.3 914.3 376.7 868.7 367 823C357.3 777.3 367.7 731.7 381.7 686C395.7 640.3 413.3 594.7 427.3 548.8C441.3 503 451.7 457 441.7 411.2C431.7 365.3 401.3 319.7 394.7 274C388 228.3 405 182.7 403.3 137C401.7 91.3 381.3 45.7 371.2 22.8L361 0L540 0L540 22.8C540 45.7 540 91.3 540 137C540 182.7 540 228.3 540 274C540 319.7 540 365.3 540 411.2C540 457 540 503 540 548.8C540 594.7 540 640.3 540 686C540 731.7 540 777.3 540 823C540 868.7 540 914.3 540 937.2L540 960Z" fill="#29AB87" stroke-linecap="round" stroke-linejoin="miter"></path></svg>